# xmcd
#
# Track frame offsets:
#	150
#	8606
#	28713
#	49442
#	69709
#	77386
#	97491
#	125861
#	135884
#	164858
#
# Disc length: 2552 seconds
#
# Revision: 1
# Processed by: cddbd v1.4PL0 Copyright (c) Steve Scherf et al.
# Submitted via: audiograbber 1.81.03
#
DISCID=8c09f60a
DTITLE=minnie the moocher - food and beverage
DYEAR=1998
DGENRE=
TTITLE0=peter gun
TTITLE1=let's stick together
TTITLE2=watermelon man
TTITLE3=st.louis blues
TTITLE4=one step beyond
TTITLE5=shebeen queen
TTITLE6=memphis underground
TTITLE7=soul finger
TTITLE8=listen here
TTITLE9=mercy, mercy, mercy
EXTD=
EXTT0=
EXTT1=
EXTT2=
EXTT3=
EXTT4=
EXTT5=
EXTT6=
EXTT7=
EXTT8=
EXTT9=
PLAYORDER=
